<svg width="304.9200042724609" height="304.9200042724609" viewBox="0 0 312.50000000000006 312.50000000000006" class="looka-1j8o68f"><defs id="SvgjsDefs1716"></defs><g id="SvgjsG1717" featurekey="rootContainer" transform="matrix(6.2625250816345215,0,0,6.2625250816345215,-0.000011944818227005213,0.000011944818227005213)" fill="#0095fe"><path xmlns="http://www.w3.org/2000/svg" d="M24.95 48.63a23.68 23.68 0 1 1 23.68-23.68 23.7 23.7 0 0 1-23.68 23.68zm0-47a23.31 23.31 0 1 0 23.31 23.31 23.34 23.34 0 0 0-23.31-23.3z"></path><path xmlns="http://www.w3.org/2000/svg" d="M24.95 49.9A24.95 24.95 0 1 1 49.9 24.95 25 25 0 0 1 24.95 49.9zm0-49.53a24.58 24.58 0 1 0 24.58 24.58A24.61 24.61 0 0 0 24.95.37z"></path><path xmlns="http://www.w3.org/2000/svg" d="M24.95 47.43a22.48 22.48 0 1 1 22.48-22.48 22.5 22.5 0 0 1-22.48 22.48zm0-44.58a22.11 22.11 0 1 0 22.11 22.11A22.13 22.13 0 0 0 24.95 2.81z"></path><path xmlns="http://www.w3.org/2000/svg" d="M24.95 9.17h-.07a9.4 9.4 0 0 0-8.64-1.31.11.11 0 0 1-.09-.2 19.4 19.4 0 0 1 17.56 0 .11.11 0 0 1 .08.11.1.1 0 0 1-.11.11 9.4 9.4 0 0 0-8.64 1.31zM19.32 7.1a9.54 9.54 0 0 1 5.63 1.82 9.62 9.62 0 0 1 7.53-1.63 19.2 19.2 0 0 0-15.07 0 9.6 9.6 0 0 1 1.91-.19zM24.95 44.37a19.21 19.21 0 0 1-8.79-2.1.11.11 0 0 1 .09-.2 9.4 9.4 0 0 0 8.64-1.31.11.11 0 0 1 .13 0 9.4 9.4 0 0 0 8.64 1.31.11.11 0 0 1 .09.2 19.21 19.21 0 0 1-8.8 2.1zm-7.52-1.76a19.2 19.2 0 0 0 15.07 0 9.62 9.62 0 0 1-7.53-1.63 9.62 9.62 0 0 1-7.54 1.63zM17.43 40.54a2 2 0 0 1-1.15-.38 7 7 0 0 1-1.8-2.27 12.59 12.59 0 0 0-1.38-2 3.5 3.5 0 0 0-3.1-1.2 1.49 1.49 0 0 0-1.11 1.17c-.54 2.12 2.16 3.37 2.19 3.38a.11.11 0 0 1 .05.15.11.11 0 0 1-.15.05S8.09 38.1 8.67 35.8a1.7 1.7 0 0 1 1.27-1.33 3.73 3.73 0 0 1 3.32 1.26 12.75 12.75 0 0 1 1.41 2 6.81 6.81 0 0 0 1.74 2.2 1.47 1.47 0 0 0 1.87 0 1.38 1.38 0 0 0 .13-1.76.11.11 0 1 1 .19-.11 1.59 1.59 0 0 1-.17 2 1.44 1.44 0 0 1-1 .48z"></path><path xmlns="http://www.w3.org/2000/svg" d="M19.19 40.49a1.92 1.92 0 0 1-1.2-.5 10.45 10.45 0 0 1-1.82-2.32 17.1 17.1 0 0 0-1.54-2.12 2.94 2.94 0 0 0-2.53-1.08 2 2 0 0 0-1.5 1.26 3.7 3.7 0 0 0 .57 3.56.11.11 0 0 1-.17.14 3.93 3.93 0 0 1-.6-3.79 2.17 2.17 0 0 1 1.67-1.39 3.16 3.16 0 0 1 2.73 1.15 17.16 17.16 0 0 1 1.56 2.15 10.31 10.31 0 0 0 1.77 2.26 1.36 1.36 0 0 0 1.54.32.77.77 0 0 0 .39-.8 1.66 1.66 0 0 0-1.53-1 .11.11 0 0 1 0-.22c1.38.24 1.65.94 1.7 1.23a1 1 0 0 1-.49 1 1.16 1.16 0 0 1-.55.15zM32.43 40.54a1.44 1.44 0 0 1-1-.39 1.59 1.59 0 0 1-.17-2 .11.11 0 0 1 .19.11 1.38 1.38 0 0 0 .13 1.76 1.47 1.47 0 0 0 1.87 0 6.8 6.8 0 0 0 1.74-2.2 12.77 12.77 0 0 1 1.41-2 3.73 3.73 0 0 1 3.32-1.26 1.7 1.7 0 0 1 1.27 1.33c.58 2.3-2.28 3.62-2.31 3.64a.11.11 0 0 1-.15-.05.11.11 0 0 1 .05-.15s2.72-1.26 2.19-3.38a1.49 1.49 0 0 0-1.11-1.17 3.5 3.5 0 0 0-3.1 1.2 12.62 12.62 0 0 0-1.38 2 7 7 0 0 1-1.8 2.27 2 2 0 0 1-1.15.29z"></path><path xmlns="http://www.w3.org/2000/svg" d="M30.71 40.49a1.16 1.16 0 0 1-.59-.16 1 1 0 0 1-.49-1c.05-.29.32-1 1.7-1.23a.11.11 0 0 1 0 .22 1.66 1.66 0 0 0-1.53 1 .77.77 0 0 0 .39.8 1.36 1.36 0 0 0 1.54-.32 10.31 10.31 0 0 0 1.78-2.27 17.2 17.2 0 0 1 1.56-2.15 3.17 3.17 0 0 1 2.73-1.15 2.17 2.17 0 0 1 1.67 1.39 3.93 3.93 0 0 1-.6 3.79.11.11 0 0 1-.17-.14 3.7 3.7 0 0 0 .57-3.56 2 2 0 0 0-1.5-1.26 3 3 0 0 0-2.53 1.08 17.1 17.1 0 0 0-1.54 2.12 10.45 10.45 0 0 1-1.82 2.32 1.92 1.92 0 0 1-1.17.52zM10.52 15.48a2.21 2.21 0 0 1-.53-.06 1.7 1.7 0 0 1-1.27-1.33c-.58-2.3 2.28-3.62 2.31-3.64a.11.11 0 0 1 .15.05.11.11 0 0 1-.05.15s-2.72 1.26-2.19 3.38a1.49 1.49 0 0 0 1.11 1.17 3.5 3.5 0 0 0 3.1-1.2 12.58 12.58 0 0 0 1.38-2 7 7 0 0 1 1.8-2.27 1.68 1.68 0 0 1 2.14 0 1.59 1.59 0 0 1 .17 2 .11.11 0 1 1-.19-.11 1.38 1.38 0 0 0-.13-1.76 1.47 1.47 0 0 0-1.87 0 6.81 6.81 0 0 0-1.74 2.2 12.73 12.73 0 0 1-1.41 2 4 4 0 0 1-2.78 1.42z"></path><path xmlns="http://www.w3.org/2000/svg" d="M12.43 15.69h-.35a2.17 2.17 0 0 1-1.67-1.39 3.93 3.93 0 0 1 .6-3.79.11.11 0 0 1 .17.14 3.7 3.7 0 0 0-.57 3.56 2 2 0 0 0 1.5 1.26 2.94 2.94 0 0 0 2.53-1.08 17.09 17.09 0 0 0 1.54-2.12A10.45 10.45 0 0 1 18 9.95a1.57 1.57 0 0 1 1.79-.34 1 1 0 0 1 .49 1c-.05.29-.32 1-1.7 1.23a.11.11 0 0 1-.13-.09.11.11 0 0 1 .09-.13 1.66 1.66 0 0 0 1.53-1 .77.77 0 0 0-.39-.8 1.36 1.36 0 0 0-1.54.32 10.31 10.31 0 0 0-1.78 2.27 17.2 17.2 0 0 1-1.56 2.15 3.32 3.32 0 0 1-2.37 1.13zM39.37 15.48a4 4 0 0 1-2.79-1.33 12.78 12.78 0 0 1-1.41-2 6.8 6.8 0 0 0-1.74-2.2 1.47 1.47 0 0 0-1.87 0 1.38 1.38 0 0 0-.13 1.76.11.11 0 0 1-.19.11 1.59 1.59 0 0 1 .17-2 1.68 1.68 0 0 1 2.14 0 7 7 0 0 1 1.8 2.27 12.62 12.62 0 0 0 1.38 2 3.5 3.5 0 0 0 3.1 1.2 1.49 1.49 0 0 0 1.11-1.17c.54-2.12-2.16-3.37-2.19-3.38a.11.11 0 1 1 .09-.2s2.89 1.34 2.31 3.64a1.7 1.7 0 0 1-1.27 1.33 2.21 2.21 0 0 1-.51-.03z"></path><path xmlns="http://www.w3.org/2000/svg" d="M37.48 15.69a3.32 3.32 0 0 1-2.38-1.18 17.2 17.2 0 0 1-1.56-2.15 10.31 10.31 0 0 0-1.78-2.27 1.36 1.36 0 0 0-1.54-.32.77.77 0 0 0-.39.8 1.66 1.66 0 0 0 1.53 1 .11.11 0 0 1 .09.13.11.11 0 0 1-.13.09c-1.38-.24-1.65-.94-1.7-1.23a1 1 0 0 1 .49-1 1.57 1.57 0 0 1 1.79.34 10.45 10.45 0 0 1 1.82 2.32 17.09 17.09 0 0 0 1.54 2.12 2.94 2.94 0 0 0 2.53 1.08 2 2 0 0 0 1.5-1.26 3.69 3.69 0 0 0-.57-3.56.11.11 0 0 1 .17-.14 3.93 3.93 0 0 1 .6 3.79 2.17 2.17 0 0 1-1.67 1.39zM16.21 42.27a13.69 13.69 0 0 1-2.45-1.48.11.11 0 1 1 .14-.17 13.42 13.42 0 0 0 2.4 1.45.11.11 0 0 1-.09.2zM33.69 42.27a.11.11 0 0 1 0-.21 13.43 13.43 0 0 0 2.4-1.45.11.11 0 0 1 .14.17 13.68 13.68 0 0 1-2.45 1.48zM13.79 9.31a.11.11 0 0 1-.07-.2 13.69 13.69 0 0 1 2.45-1.48.11.11 0 0 1 .09.2 13.44 13.44 0 0 0-2.4 1.45zM36.11 9.31h-.07a13.41 13.41 0 0 0-2.4-1.45.11.11 0 1 1 .09-.2 13.68 13.68 0 0 1 2.45 1.48.11.11 0 0 1-.07.17z"></path></g><g id="SvgjsG1718" featurekey="nameFeature-0" transform="matrix(2.72127366065979,0,0,2.72127366065979,56.000001946406655,86.08633387922687)" fill="#00236f"><path d="M9.24 21.2 l-2.72 0 l0 12.76 c0 1.2 1 2.16 2.2 2.16 l0 3.84 c-3.32 0 -6 -2.68 -6 -6 l0 -12.76 l-2.72 0 l0 -3.84 l2.72 0 l0 -6 l3.8 0 l0 6 l2.72 0 l0 3.84 z M21.067 32.76 l0 7.2 l-3.68 0 l0 -0.12 c-0.36 0.08 -0.72 0.12 -1.12 0.12 c-2.8 0 -5.04 -2.24 -5.04 -5.04 l0 -4.28 c0 -1.12 0.44 -2.16 1.24 -2.96 c0.76 -0.76 1.8 -1.2 2.92 -1.2 l1.92 0 l0 -4.32 c0 -0.6 -0.52 -1.12 -1.12 -1.12 l-0.2 0 c-0.64 0 -1.12 0.52 -1.12 1.12 l0 3.04 l-3.72 0 l0 -3.04 c0 -2.68 2.16 -4.84 4.84 -4.84 l0.2 0 c2.68 0 4.84 2.16 4.84 4.84 z M16.267 36.24 c0.6 0 1.12 -0.48 1.12 -1.08 l-0.04 -4.92 l-1.96 -0.04 c-0.16 0 -0.24 0.08 -0.32 0.12 c-0.04 0.08 -0.12 0.16 -0.12 0.32 l0 4.28 c0 0.72 0.6 1.32 1.32 1.32 z M28.933999999999997 39.96 c-2.96 0 -5.36 -2.4 -5.36 -5.36 l0 -3.12 l3.8 0 l0 3.12 c0 0.88 0.72 1.56 1.56 1.56 c0.88 0 1.56 -0.68 1.56 -1.56 l0 -1.72 l-6.92 -7.16 l0 -3.16 c0 -2.96 2.4 -5.4 5.36 -5.4 s5.36 2.44 5.36 5.4 l0 2.48 l-3.8 0 l0 -2.48 c0 -0.88 -0.68 -1.56 -1.56 -1.56 c-0.84 0 -1.56 0.68 -1.56 1.56 l0 1.6 l6.92 7.2 l0 3.24 c0 2.96 -2.4 5.36 -5.36 5.36 z M43.801 22.96 l5.04 17 l-3.92 0 l-3.96 -14.12 l-0.36 0.48 l0 13.6 l-0.2 0.08 l-3.6 0 l0 -28.56 l3.8 0 l0 9.56 l2.64 -3.68 l4.36 0 z M55.028 39.92 c-2.88 0 -5.2 -2.36 -5.2 -5.24 l0 -12.48 c0 -2.64 2.16 -4.8 4.8 -4.8 l0.84 0 c2.64 0 4.8 2.16 4.8 4.8 l0 5.24 l-6.72 0.12 l0 7.12 c0 0.84 0.64 1.52 1.48 1.52 s1.52 -0.68 1.52 -1.52 l0 -2.48 l3.72 0 l0 2.48 c0 2.88 -2.36 5.24 -5.24 5.24 z M55.467999999999996 21.08 l-0.84 0 c-0.6 0 -1.08 0.52 -1.08 1.12 l0 1.68 l3 -0.08 l0 -1.6 c0 -0.6 -0.48 -1.12 -1.08 -1.12 z M68.57499999999999 18.28 c2.72 0 4.92 2.16 4.92 4.88 l0 1.92 l-3.8 0 l0 -1.92 c0 -0.64 -0.48 -1.12 -1.12 -1.12 l-0.84 0 c-0.6 0 -1.12 0.48 -1.12 1.12 l-0.08 16.88 l-3.76 0 l0.08 -16.88 l0 -5.76 l3.76 0 l0 1 c0.36 -0.08 0.76 -0.12 1.12 -0.12 l0.84 0 z"></path></g></svg>